HIERARCHY
ROOT Hips
{
	OFFSET 0.000000 0.000000 0.000000
	CHANNELS 6 Xposition Yposition Zposition Yrotation Xrotation Zrotation
	JOINT Chest
	{
		OFFSET 0.000000 -0.009282 11.569106
		CHANNELS 6 Xposition Yposition Zposition Yrotation Xrotation Zrotation
		JOINT Chest2
		{
			OFFSET -0.000000 0.016863 9.269641
			CHANNELS 6 Xposition Yposition Zposition Yrotation Xrotation Zrotation
			JOINT Chest3
			{
				OFFSET -0.000000 0.000000 8.374491
				CHANNELS 6 Xposition Yposition Zposition Yrotation Xrotation Zrotation
				JOINT Chest4
				{
					OFFSET -0.000000 0.000000 8.374493
					CHANNELS 6 Xposition Yposition Zposition Yrotation Xrotation Zrotation
					JOINT Neck
					{
						OFFSET -0.000000 0.000001 12.152554
						CHANNELS 6 Xposition Yposition Zposition Yrotation Xrotation Zrotation
						JOINT Head
						{
							OFFSET -0.000000 0.040100 7.802319
							CHANNELS 6 Xposition Yposition Zposition Yrotation Xrotation Zrotation
							End Site
							{
								OFFSET -0.000000 0.020946 14.853096
							}
						}
					}
					JOINT RightCollar
					{
						OFFSET 2.894404 0.000001 6.791374
						CHANNELS 6 Xposition Yposition Zposition Yrotation Xrotation Zrotation
						JOINT RightShoulder
						{
							OFFSET 13.574684 0.000001 0.000000
							CHANNELS 6 Xposition Yposition Zposition Yrotation Xrotation Zrotation
							JOINT RightElbow
							{
								OFFSET 23.923903 0.000002 0.000000
								CHANNELS 6 Xposition Yposition Zposition Yrotation Xrotation Zrotation
								JOINT RightWrist
								{
									OFFSET 19.846718 0.012767 0.000000
									CHANNELS 6 Xposition Yposition Zposition Yrotation Xrotation Zrotation
									End Site
									{
										OFFSET 14.973145 0.000001 0.000000
									}
								}
							}
						}
					}
					JOINT LeftCollar
					{
						OFFSET -2.894404 0.000000 6.791374
						CHANNELS 6 Xposition Yposition Zposition Yrotation Xrotation Zrotation
						JOINT LeftShoulder
						{
							OFFSET -13.574684 -0.000001 0.000000
							CHANNELS 6 Xposition Yposition Zposition Yrotation Xrotation Zrotation
							JOINT LeftElbow
							{
								OFFSET -23.923903 -0.000002 0.000000
								CHANNELS 6 Xposition Yposition Zposition Yrotation Xrotation Zrotation
								JOINT LeftWrist
								{
									OFFSET -19.846718 0.012763 0.000000
									CHANNELS 6 Xposition Yposition Zposition Yrotation Xrotation Zrotation
									End Site
									{
										OFFSET -14.973145 -0.000001 0.000000
									}
								}
							}
						}
					}
				}
			}
		}
	}
	JOINT RightHip
	{
		OFFSET 9.469263 0.004643 0.045487
		CHANNELS 6 Xposition Yposition Zposition Yrotation Xrotation Zrotation
		JOINT RightKnee
		{
			OFFSET 0.000000 0.002666 -40.478676
			CHANNELS 6 Xposition Yposition Zposition Yrotation Xrotation Zrotation
			JOINT RightAnkle
			{
				OFFSET 0.000000 0.049110 -35.224068
				CHANNELS 6 Xposition Yposition Zposition Yrotation Xrotation Zrotation
				JOINT RightToe
				{
					OFFSET -0.000001 12.539530 -6.151390
					CHANNELS 6 Xposition Yposition Zposition Yrotation Xrotation Zrotation
					End Site
					{
						OFFSET -0.000001 5.044996 -1.291870
					}
				}
			}
		}
	}
	JOINT LeftHip
	{
		OFFSET -9.469263 0.004641 0.045487
		CHANNELS 6 Xposition Yposition Zposition Yrotation Xrotation Zrotation
		JOINT LeftKnee
		{
			OFFSET 0.000000 0.002666 -40.478676
			CHANNELS 6 Xposition Yposition Zposition Yrotation Xrotation Zrotation
			JOINT LeftAnkle
			{
				OFFSET 0.000000 0.049110 -35.224068
				CHANNELS 6 Xposition Yposition Zposition Yrotation Xrotation Zrotation
				JOINT LeftToe
				{
					OFFSET -0.000001 12.539530 -6.151390
					CHANNELS 6 Xposition Yposition Zposition Yrotation Xrotation Zrotation
					End Site
					{
						OFFSET -0.000001 5.044996 -1.291870
					}
				}
			}
		}
	}
}
MOTION
Frames: 8
Frame Time: 0.016667
5.253799 5.244980 83.067154 -9.927489 -2.717379 -103.857596 -0.000000 -0.009281 11.569108 0.007299 -2.386627 0.051252 0.000000 0.016861 9.269634 0.004238 -1.057217 0.025463 0.000001 -0.000000 8.374494 0.004238 -1.057217 0.025461 -0.000000 -0.000000 8.374498 0.003223 -0.792913 0.019105 0.000000 0.000001 12.152546 4.441852 -19.213966 -8.732346 -0.000001 0.040102 7.802320 5.363402 0.538271 -14.567023 2.894404 0.000000 6.791368 4.372145 -3.137791 -9.296648 13.574685 0.000001 -0.000006 69.822599 -1.528236 37.906481 23.923893 0.000003 0.000009 64.435977 -33.704200 42.493107 19.846714 0.012757 -0.000001 -35.111974 28.711991 23.088911 -2.894404 -0.000001 6.791368 -8.142641 -1.421500 -4.760135 -13.574683 -0.000000 -0.000014 -64.730345 -18.394174 -39.202089 -23.923904 -0.000006 -0.000001 -25.035305 2.478463 -41.340533 -19.846718 0.012768 -0.000001 29.824830 21.300336 -26.971208 9.469263 0.004645 0.045495 1.617073 -13.663053 -10.446713 0.000129 0.002656 -40.478481 -4.291592 3.977305 -3.074073 0.000002 0.049108 -35.224056 5.264203 0.411785 -0.003011 -0.000001 12.539527 -6.151390 -0.006698 -0.012147 0.008520 -9.469262 0.004643 0.045487 0.517068 -13.734388 -23.797921 -0.000847 0.002515 -40.478432 -0.707856 5.817423 18.414502 -0.000907 0.048952 -35.224087 0.422097 -0.645378 19.863015 -0.000001 12.539534 -6.151390 0.018759 -0.009204 -0.004952 
5.255600 5.254985 83.065681 -9.900015 -2.707257 -103.857568 -0.000001 -0.009281 11.569114 0.012855 -2.368382 0.068355 0.000000 0.016862 9.269643 0.007768 -1.049456 0.035229 0.000000 -0.000001 8.374495 0.007768 -1.049456 0.035230 -0.000001 -0.000000 8.374503 0.005886 -0.787092 0.026435 -0.000000 0.000001 12.152548 4.398758 -19.078889 -8.733277 -0.000001 0.040106 7.802336 5.273394 0.784702 -14.584614 2.894403 0.000001 6.791374 4.395289 -3.116892 -9.277714 13.574687 0.000001 -0.000006 69.753027 -1.524548 38.149711 23.923893 0.000010 -0.000004 67.601183 -31.929949 41.641853 19.846716 0.012756 -0.000003 -34.843035 30.110220 22.623050 -2.894405 0.000001 6.791368 -8.131056 -1.430676 -4.813159 -13.574686 0.000000 0.000002 -64.681700 -18.251423 -39.336982 -23.923908 -0.000000 0.000003 -26.831304 3.284498 -41.994646 -19.846714 0.012744 0.000007 29.746591 22.869055 -24.683534 9.469262 0.004644 0.045495 1.615931 -13.644912 -10.468851 0.000128 0.002656 -40.478470 -4.296706 3.999835 -3.067197 0.000001 0.049106 -35.224049 5.269452 0.404392 0.004026 -0.000002 12.539526 -6.151391 -0.003333 -0.015244 0.013350 -9.469265 0.004643 0.045498 0.511090 -13.714451 -23.800767 -0.000849 0.002515 -40.478436 -0.701478 5.827930 18.413514 -0.000906 0.048951 -35.224094 0.422891 -0.650840 19.814333 -0.000000 12.539536 -6.151392 0.013215 -0.008828 -0.013064 
5.264392 5.253667 83.064545 -9.878795 -2.704494 -103.863524 0.000000 -0.009283 11.569107 0.032035 -2.352185 0.094391 0.000001 0.016862 9.269635 0.014101 -1.040937 0.045458 0.000001 -0.000001 8.374493 0.014101 -1.040939 0.045457 -0.000000 -0.000001 8.374493 0.010652 -0.780702 0.034116 0.000000 0.000001 12.152549 4.353643 -18.953517 -8.740137 -0.000000 0.040102 7.802300 5.178527 1.012776 -14.613786 2.894403 0.000001 6.791375 4.409603 -3.094199 -9.259702 13.574683 0.000002 0.000015 69.622987 -1.585315 38.409132 23.923897 0.000007 -0.000005 70.744634 -30.013436 41.062858 19.846712 0.012756 -0.000005 -34.560921 31.819160 22.045013 -2.894403 -0.000000 6.791368 -8.129330 -1.427568 -4.870587 -13.574688 -0.000002 -0.000012 -64.601978 -18.128481 -39.496617 -23.923912 -0.000001 -0.000007 -28.564080 4.036740 -42.719456 -19.846714 0.012766 -0.000002 29.786660 24.474970 -22.431506 9.469262 0.004643 0.045492 1.621639 -13.637220 -10.469562 0.000128 0.002656 -40.478474 -4.306506 4.019055 -3.072080 0.000000 0.049108 -35.224052 5.277513 0.396759 0.013930 0.000001 12.539526 -6.151386 -0.001622 -0.013310 0.012394 -9.469264 0.004641 0.045492 0.506612 -13.700375 -23.813489 -0.000845 0.002516 -40.478432 -0.697028 5.836433 18.420303 -0.000909 0.048950 -35.224098 0.423426 -0.647770 19.878364 -0.000002 12.539534 -6.151389 0.015856 -0.011080 -0.005759 
5.273336 5.257537 83.063461 -9.859703 -2.697252 -103.859945 0.000000 -0.009282 11.569106 0.045959 -2.335647 0.102694 0.000000 0.016865 9.269637 0.021536 -1.035108 0.050475 0.000000 0.000002 8.374495 0.021535 -1.035108 0.050476 0.000000 -0.000000 8.374500 0.016237 -0.776329 0.037891 0.000000 -0.000000 12.152556 4.304798 -18.840641 -8.735690 -0.000002 0.040094 7.802305 5.081347 1.217785 -14.623467 2.894404 0.000001 6.791370 4.418938 -3.048352 -9.215343 13.574681 0.000000 0.000001 69.499142 -1.671810 38.662682 23.923904 0.000014 -0.000003 73.575863 -28.124626 40.850784 19.846712 0.012758 0.000004 -34.349902 33.666522 21.119343 -2.894403 0.000001 6.791369 -8.129198 -1.412761 -4.910683 -13.574678 0.000001 0.000013 -64.532447 -17.938498 -39.664886 -23.923916 0.000001 -0.000003 -30.326077 4.673251 -43.527163 -19.846710 0.012756 0.000000 29.938273 26.107561 -20.082578 9.469263 0.004645 0.045490 1.622635 -13.626447 -10.461450 0.000129 0.002656 -40.478477 -4.313228 4.026689 -3.087814 0.000001 0.049108 -35.224060 5.278767 0.396974 0.013434 -0.000001 12.539528 -6.151393 0.003411 -0.012788 0.015899 -9.469262 0.004643 0.045485 0.505378 -13.687142 -23.839665 -0.000848 0.002515 -40.478424 -0.698953 5.839591 18.432244 -0.000910 0.048949 -35.224098 0.427379 -0.642447 19.896993 -0.000001 12.539531 -6.151388 0.012353 -0.010979 -0.012465 
5.285256 5.250062 83.063011 -9.849585 -2.700590 -103.863046 -0.000001 -0.009283 11.569116 0.066188 -2.321482 0.125113 -0.000000 0.016863 9.269630 0.028334 -1.029185 0.056582 -0.000000 -0.000001 8.374499 0.028334 -1.029185 0.056582 -0.000001 -0.000001 8.374501 0.021346 -0.771886 0.042483 0.000000 0.000001 12.152554 4.262903 -18.746065 -8.735321 -0.000001 0.040102 7.802326 4.997016 1.389325 -14.638190 2.894403 -0.000000 6.791365 4.437880 -3.020057 -9.169997 13.574685 0.000001 -0.000003 69.432431 -1.702527 38.925487 23.923899 0.000014 0.000002 76.107336 -26.328166 40.904507 19.846710 0.012754 0.000000 -33.842358 35.481327 19.814886 -2.894404 -0.000001 6.791366 -8.131596 -1.395243 -4.962461 -13.574682 0.000000 -0.000010 -64.476979 -17.686013 -39.821485 -23.923904 -0.000003 -0.000001 -32.153928 5.209999 -44.406926 -19.846714 0.012751 -0.000000 30.120902 27.554045 -17.754582 9.469263 0.004642 0.045492 1.625247 -13.621315 -10.429433 0.000132 0.002656 -40.478477 -4.312673 4.021922 -3.109692 0.000001 0.049109 -35.224056 5.278327 0.397773 0.013132 -0.000002 12.539527 -6.151385 0.004782 -0.007628 0.012037 -9.469264 0.004640 0.045494 0.508635 -13.679581 -23.846911 -0.000848 0.002514 -40.478428 -0.706639 5.837765 18.433939 -0.000916 0.048948 -35.224083 0.432339 -0.626942 20.070321 -0.000000 12.539533 -6.151391 0.016225 -0.014873 -0.001267 
5.291641 5.260102 83.062698 -9.844668 -2.688440 -103.848334 0.000000 -0.009286 11.569100 0.070860 -2.295830 0.135128 0.000000 0.016863 9.269637 0.034623 -1.021579 0.063385 0.000001 -0.000000 8.374496 0.034623 -1.021580 0.063384 0.000001 0.000001 8.374495 0.026073 -0.766182 0.047597 -0.000000 0.000001 12.152559 4.227683 -18.673066 -8.736531 0.000001 0.040101 7.802312 4.926130 1.521409 -14.653344 2.894404 0.000001 6.791375 4.466827 -2.994342 -9.126624 13.574681 0.000001 0.000008 69.445115 -1.608782 39.176510 23.923908 0.000004 0.000002 78.438582 -24.685634 41.057309 19.846708 0.012769 -0.000007 -33.029255 37.280409 18.237276 -2.894403 -0.000000 6.791378 -8.130433 -1.393563 -5.020382 -13.574681 -0.000003 -0.000000 -64.457663 -17.383805 -39.962426 -23.923925 0.000001 -0.000005 -33.981694 5.628213 -45.319897 -19.846716 0.012756 -0.000006 30.314637 28.875779 -15.559603 9.469264 0.004640 0.045480 1.611526 -13.610252 -10.419576 0.000130 0.002656 -40.478466 -4.310988 4.005635 -3.116477 0.000002 0.049107 -35.224052 5.274364 0.406587 -0.005140 -0.000002 12.539529 -6.151385 0.011050 -0.006074 0.016914 -9.469262 0.004639 0.045486 0.506650 -13.679678 -23.866378 -0.000847 0.002516 -40.478428 -0.711838 5.836668 18.432737 -0.000912 0.048950 -35.224094 0.435320 -0.628656 19.899794 0.000000 12.539529 -6.151389 0.005388 -0.008862 -0.018671 
5.303575 5.257425 83.062752 -9.850763 -2.695550 -103.844379 -0.000000 -0.009280 11.569110 0.089637 -2.279807 0.157668 0.000000 0.016865 9.269636 0.040578 -1.013134 0.068990 0.000000 0.000002 8.374499 0.040578 -1.013135 0.068991 -0.000000 0.000001 8.374496 0.030547 -0.759847 0.051809 -0.000000 0.000003 12.152555 4.200327 -18.615986 -8.738750 0.000000 0.040105 7.802307 4.870599 1.624655 -14.667529 2.894403 0.000002 6.791371 4.503452 -2.953551 -9.086979 13.574684 0.000002 0.000012 69.492674 -1.389610 39.410567 23.923903 0.000020 -0.000003 80.729318 -23.174555 41.208280 19.846712 0.012771 -0.000006 -32.013629 39.225291 16.753810 -2.894404 0.000001 6.791373 -8.123924 -1.412191 -5.076253 -13.574685 -0.000003 -0.000003 -64.459330 -17.056618 -40.120640 -23.923906 -0.000008 -0.000002 -35.744637 5.921916 -46.257473 -19.846716 0.012751 -0.000000 30.448785 30.150357 -13.525613 9.469263 0.004645 0.045487 1.613509 -13.616178 -10.414470 0.000130 0.002656 -40.478485 -4.305542 3.988944 -3.106679 0.000002 0.049108 -35.224052 5.266055 0.414852 -0.020755 -0.000002 12.539526 -6.151395 0.016029 -0.000920 0.017239 -9.469263 0.004642 0.045485 0.502545 -13.695696 -23.866923 -0.000848 0.002514 -40.478436 -0.705306 5.835175 18.444907 -0.000907 0.048951 -35.224087 0.435408 -0.621197 19.821288 0.000000 12.539533 -6.151392 0.006372 -0.010694 -0.011325 
5.317291 5.257375 83.062569 -9.858229 -2.696716 -103.832064 0.000001 -0.009281 11.569108 0.101284 -2.254216 0.172744 0.000000 0.016865 9.269638 0.045712 -1.001071 0.074397 0.000000 -0.000001 8.374484 0.045712 -1.001071 0.074397 0.000000 0.000000 8.374500 0.034405 -0.750797 0.055869 0.000000 -0.000001 12.152549 4.181742 -18.574530 -8.746402 -0.000000 0.040103 7.802316 4.830657 1.699514 -14.688542 2.894403 -0.000000 6.791373 4.531229 -2.918161 -9.045163 13.574688 0.000002 -0.000007 69.544679 -1.142228 39.616450 23.923895 0.000020 -0.000004 82.950906 -21.793626 41.390260 19.846712 0.012758 -0.000002 -30.717748 41.391694 15.560475 -2.894404 -0.000001 6.791374 -8.110471 -1.449636 -5.117837 -13.574687 -0.000001 0.000001 -64.437589 -16.760161 -40.309533 -23.923903 -0.000007 0.000007 -37.488497 6.176757 -47.303995 -19.846722 0.012759 0.000003 30.633149 31.472429 -11.423339 9.469263 0.004644 0.045487 1.612798 -13.629698 -10.425227 0.000129 0.002656 -40.478470 -4.301027 3.980218 -3.083771 0.000002 0.049109 -35.224056 5.258257 0.424917 -0.043546 -0.000003 12.539526 -6.151392 0.020949 0.002717 0.019074 -9.469261 0.004642 0.045491 0.496204 -13.714166 -23.862828 -0.000851 0.002515 -40.478436 -0.697960 5.832178 18.450475 -0.000911 0.048950 -35.224102 0.439304 -0.606650 19.895385 0.000000 12.539534 -6.151392 0.002629 -0.014757 -0.012415 
